<svg xmlns="http://www.w3.org/2000/svg" width="256" height="256" viewBox="0 0 256 256" role="img" aria-label="Elon Musk lobster-hat avatar">
  <rect width="256" height="256" fill="#ffffff"/>
  <g transform="translate(0 4)">
    <ellipse cx="128" cy="90" rx="52" ry="20" fill="#dc2626"/>
    <circle cx="89" cy="88" r="14" fill="#ef4444"/>
    <circle cx="167" cy="88" r="14" fill="#ef4444"/>
    <path d="M92 87c4-5 8-5 12 0" stroke="#991b1b" stroke-width="3" fill="none"/>
    <path d="M152 87c4-5 8-5 12 0" stroke="#991b1b" stroke-width="3" fill="none"/>
    <circle cx="110" cy="88" r="2.5" fill="#fff"/>
    <circle cx="146" cy="88" r="2.5" fill="#fff"/>
  </g>
  <circle cx="128" cy="132" r="56" fill="#f3f4f6"/>
  <ellipse cx="128" cy="137" rx="40" ry="44" fill="#f5d0b5"/>
  <path d="M90 126c8-20 22-30 38-30s30 10 38 30" fill="#6b7280"/>
  <circle cx="113" cy="136" r="4" fill="#111827"/>
  <circle cx="143" cy="136" r="4" fill="#111827"/>
  <path d="M115 155c8 7 18 7 26 0" stroke="#7f1d1d" stroke-width="3" fill="none" stroke-linecap="round"/>
  <text x="128" y="236" text-anchor="middle" font-family="Inter, Arial" font-size="18" fill="#111827" font-weight="700">EM</text>
</svg>
