<svg xmlns="http://www.w3.org/2000/svg" width="256" height="256" viewBox="0 0 256 256" role="img" aria-label="Warren Buffett lobster-hat avatar">
  <rect width="256" height="256" fill="#ffffff"/>
  <g transform="translate(0 4)"><ellipse cx="128" cy="90" rx="52" ry="20" fill="#dc2626"/><circle cx="89" cy="88" r="14" fill="#ef4444"/><circle cx="167" cy="88" r="14" fill="#ef4444"/></g>
  <circle cx="128" cy="132" r="56" fill="#f8fafc"/>
  <ellipse cx="128" cy="137" rx="40" ry="44" fill="#f4c7a8"/>
  <path d="M96 122c10-11 54-11 64 0" stroke="#d1d5db" stroke-width="8" fill="none"/>
  <circle cx="113" cy="136" r="4" fill="#111827"/><circle cx="143" cy="136" r="4" fill="#111827"/>
  <rect x="101" y="133" width="22" height="11" rx="4" fill="none" stroke="#374151" stroke-width="2"/>
  <rect x="133" y="133" width="22" height="11" rx="4" fill="none" stroke="#374151" stroke-width="2"/>
  <line x1="123" y1="138" x2="133" y2="138" stroke="#374151" stroke-width="2"/>
  <path d="M114 157c10 7 20 7 30 0" stroke="#7f1d1d" stroke-width="3" fill="none" stroke-linecap="round"/>
  <text x="128" y="236" text-anchor="middle" font-family="Inter, Arial" font-size="18" fill="#111827" font-weight="700">WB</text>
</svg>
